<mxfile host="app.diagrams.net" agent="Mozilla/5.0 (Windows NT 10.0; Win64; x64) AppleWebKit/537.36 (KHTML, like Gecko) Chrome/138.0.0.0 Safari/537.36" version="28.0.6">
  <diagram name="Page-1" id="aj7XoqdJWQgZfxYkB7UB">
    <mxGraphModel dx="1025" dy="463" grid="1" gridSize="10" guides="1" tooltips="1" connect="1" arrows="1" fold="1" page="1" pageScale="1" pageWidth="850" pageHeight="1100" math="0" shadow="0">
      <root>
        <mxCell id="0" />
        <mxCell id="1" parent="0" />
        <mxCell id="jEl6Pg8Vvb8DJOklEaaW-1" value="" style="rounded=0;whiteSpace=wrap;html=1;" parent="1" vertex="1">
          <mxGeometry x="90" width="670" height="90" as="geometry" />
        </mxCell>
        <mxCell id="jEl6Pg8Vvb8DJOklEaaW-2" value="" style="whiteSpace=wrap;html=1;aspect=fixed;" parent="1" vertex="1">
          <mxGeometry x="90" y="180" width="210" height="210" as="geometry" />
        </mxCell>
        <mxCell id="jEl6Pg8Vvb8DJOklEaaW-3" value="" style="whiteSpace=wrap;html=1;aspect=fixed;" parent="1" vertex="1">
          <mxGeometry x="320" y="180" width="210" height="210" as="geometry" />
        </mxCell>
        <mxCell id="jEl6Pg8Vvb8DJOklEaaW-4" value="" style="whiteSpace=wrap;html=1;aspect=fixed;" parent="1" vertex="1">
          <mxGeometry x="550" y="180" width="210" height="210" as="geometry" />
        </mxCell>
        <mxCell id="jEl6Pg8Vvb8DJOklEaaW-5" value="" style="rounded=0;whiteSpace=wrap;html=1;" parent="1" vertex="1">
          <mxGeometry x="100" y="400" width="190" height="60" as="geometry" />
        </mxCell>
        <mxCell id="jEl6Pg8Vvb8DJOklEaaW-6" value="" style="rounded=0;whiteSpace=wrap;html=1;" parent="1" vertex="1">
          <mxGeometry x="330" y="400" width="190" height="60" as="geometry" />
        </mxCell>
        <mxCell id="jEl6Pg8Vvb8DJOklEaaW-7" value="" style="rounded=0;whiteSpace=wrap;html=1;" parent="1" vertex="1">
          <mxGeometry x="560" y="400" width="200" height="60" as="geometry" />
        </mxCell>
        <mxCell id="jEl6Pg8Vvb8DJOklEaaW-8" value="" style="rounded=0;whiteSpace=wrap;html=1;" parent="1" vertex="1">
          <mxGeometry x="145" y="110" width="560" height="60" as="geometry" />
        </mxCell>
        <mxCell id="jEl6Pg8Vvb8DJOklEaaW-9" value="" style="rounded=0;whiteSpace=wrap;html=1;" parent="1" vertex="1">
          <mxGeometry x="125" y="560" width="600" height="200" as="geometry" />
        </mxCell>
        <mxCell id="jEl6Pg8Vvb8DJOklEaaW-10" value="" style="rounded=0;whiteSpace=wrap;html=1;" parent="1" vertex="1">
          <mxGeometry x="135" y="780" width="580" height="200" as="geometry" />
        </mxCell>
        <mxCell id="jEl6Pg8Vvb8DJOklEaaW-11" value="" style="rounded=0;whiteSpace=wrap;html=1;" parent="1" vertex="1">
          <mxGeometry x="20" y="1000" width="820" height="90" as="geometry" />
        </mxCell>
        <mxCell id="Iy_EENzmAJkffWd-YsTk-1" style="edgeStyle=orthogonalEdgeStyle;rounded=0;orthogonalLoop=1;jettySize=auto;html=1;" edge="1" parent="1" source="jEl6Pg8Vvb8DJOklEaaW-9" target="jEl6Pg8Vvb8DJOklEaaW-9">
          <mxGeometry relative="1" as="geometry" />
        </mxCell>
        <mxCell id="Iy_EENzmAJkffWd-YsTk-3" value="" style="rounded=0;whiteSpace=wrap;html=1;" vertex="1" parent="1">
          <mxGeometry x="230" y="480" width="400" height="60" as="geometry" />
        </mxCell>
      </root>
    </mxGraphModel>
  </diagram>
</mxfile>
